<?xml version="1.0" encoding="UTF-8" standalone="no"?>
<svg
   xmlns:dc="http://purl.org/dc/elements/1.1/"
   xmlns:cc="http://creativecommons.org/ns#"
   xmlns:rdf="http://www.w3.org/1999/02/22-rdf-syntax-ns#"
   xmlns:svg="http://www.w3.org/2000/svg"
   xmlns="http://www.w3.org/2000/svg"
   viewBox="0 0 1252 377.33334"
   height="377.33334"
   width="1252"
   xml:space="preserve"
   id="svg2"
   version="1.1"><metadata
     id="metadata8"><rdf:RDF><cc:Work
         rdf:about=""><dc:format>image/svg+xml</dc:format><dc:type
           rdf:resource="http://purl.org/dc/dcmitype/StillImage" /></cc:Work></rdf:RDF></metadata><defs
     id="defs6" /><g
     transform="matrix(1.3333333,0,0,1.3333333,0,6.1e-6)"
     id="g10"><g
       id="g12"><path
         id="path14"
         style="fill:#ffffff;fill-opacity:1;fill-rule:evenodd;stroke:none"
         d="M 88.047,45.949 H 318.516 V 240.027 H 88.047 Z" /><path
         id="path16"
         style="fill:#f5821f;fill-opacity:1;fill-rule:evenodd;stroke:none"
         d="m 138.145,81.477 -1.211,-0.493 1.566,-2.062 1.555,-2.051 -0.352,2.555 -0.348,2.558 z" /><path
         id="path18"
         style="fill:#f5821f;fill-opacity:1;fill-rule:evenodd;stroke:none"
         d="m 141.719,83.883 -0.926,-0.922 2.227,-1.301 2.226,-1.305 -1.297,2.235 -1.304,2.219 z" /><path
         id="path20"
         style="fill:#f5821f;fill-opacity:1;fill-rule:evenodd;stroke:none"
         d="m 144.094,87.477 -0.5,-1.211 2.562,-0.356 2.555,-0.351 -2.051,1.566 -2.062,1.563 z" /><path
         id="path22"
         style="fill:#f5821f;fill-opacity:1;fill-rule:evenodd;stroke:none"
         d="m 144.922,91.699 v -1.312 l 4.992,1.312 -4.992,1.313 z" /><path
         id="path24"
         style="fill:#f5821f;fill-opacity:1;fill-rule:evenodd;stroke:none"
         d="m 144.07,95.926 0.5,-1.219 2.059,1.57 2.051,1.555 -2.555,-0.344 -2.559,-0.351 z" /><path
         id="path26"
         style="fill:#f5821f;fill-opacity:1;fill-rule:evenodd;stroke:none"
         d="m 141.66,99.5 0.93,-0.93 1.301,2.223 1.304,2.23 -2.234,-1.304 -2.223,-1.289 z" /><path
         id="path28"
         style="fill:#f5821f;fill-opacity:1;fill-rule:evenodd;stroke:none"
         d="m 138.074,101.875 1.211,-0.496 0.352,2.555 0.347,2.554 -1.558,-2.058 -1.563,-2.051 z" /><path
         id="path30"
         style="fill:#f5821f;fill-opacity:1;fill-rule:evenodd;stroke:none"
         d="m 133.848,102.699 h 1.312 l -1.312,4.992 -0.657,-2.496 -0.652,-2.496 z" /><path
         id="path32"
         style="fill:#f5821f;fill-opacity:1;fill-rule:evenodd;stroke:none"
         d="m 129.629,101.844 1.211,0.504 -1.563,2.058 -1.562,2.051 0.703,-5.109 z" /><path
         id="path34"
         style="fill:#f5821f;fill-opacity:1;fill-rule:evenodd;stroke:none"
         d="m 126.055,99.438 0.929,0.929 -2.234,1.305 -2.23,1.305 1.3,-2.235 1.305,-2.234 z" /><path
         id="path36"
         style="fill:#f5821f;fill-opacity:1;fill-rule:evenodd;stroke:none"
         d="m 123.672,95.852 0.504,1.211 -2.555,0.355 -2.562,0.344 2.054,-1.555 2.063,-1.57 z" /><path
         id="path38"
         style="fill:#f5821f;fill-opacity:1;fill-rule:evenodd;stroke:none"
         d="m 122.848,91.629 v 1.305 l -2.5,-0.661 -2.496,-0.644 2.496,-0.668 2.5,-0.645 z" /><path
         id="path40"
         style="fill:#f5821f;fill-opacity:1;fill-rule:evenodd;stroke:none"
         d="m 123.703,87.406 -0.504,1.211 -2.054,-1.562 -2.059,-1.567 2.566,0.356 2.555,0.351 z" /><path
         id="path42"
         style="fill:#f5821f;fill-opacity:1;fill-rule:evenodd;stroke:none"
         d="m 126.105,83.832 -0.925,0.93 -1.305,-2.235 -1.293,-2.222 2.223,1.293 2.23,1.304 z" /><path
         id="path44"
         style="fill:#f5821f;fill-opacity:1;fill-rule:evenodd;stroke:none"
         d="m 129.699,81.449 -1.211,0.504 -0.355,-2.555 -0.352,-2.558 1.567,2.051 1.562,2.062 z" /><path
         id="path46"
         style="fill:#f5821f;fill-opacity:1;fill-rule:evenodd;stroke:none"
         d="m 133.922,80.629 h -1.313 l 0.657,-2.504 0.656,-2.496 0.656,2.496 0.656,2.504 z" /><path
         id="path48"
         style="fill:#f5821f;fill-opacity:1;fill-rule:evenodd;stroke:none"
         d="m 133.938,100.793 c 4.984,0 9.035,-4.051 9.035,-9.035 0,-4.988 -4.051,-9.028 -9.035,-9.028 -4.985,0 -9.032,4.04 -9.032,9.028 0,4.984 4.047,9.035 9.032,9.035 z" /><path
         id="path50"
         style="fill:#ed1c24;fill-opacity:1;fill-rule:evenodd;stroke:none"
         d="M 320.766,242.504 H 85.797 V 43.473 h 234.969 z m -3.11,-3.109 V 46.582 H 88.906 v 192.813 z" /><path
         id="path52"
         style="fill:#ed1c24;fill-opacity:1;fill-rule:evenodd;stroke:none"
         d="M 304.973,239.699 V 85.586 l -45.047,-24.609 -0.09,0.054 -0.016,0.02 -33.601,20.285 -0.024,0.039 c -0.031,0.051 -0.058,0.113 -0.086,0.188 v 46.324 l -2.867,-0.848 -34.031,-10.031 v -0.004 c -0.027,-0.008 -0.051,-0.012 -0.066,-0.016 l -0.02,0.008 -0.102,0.055 -0.117,0.066 -24.531,17.016 c -0.02,0.019 -0.031,0.035 -0.039,0.051 -0.008,0.011 -0.012,0.046 -0.012,0.097 v 29.457 l -2.965,-1.019 -28.406,-9.785 -0.769,0.097 -29.461,19.379 -0.438,0.852 c -0.004,3.91 -0.019,18.633 -0.035,32.972 -0.008,7.172 -0.016,14.727 -0.016,33.489 h -4.476 c 0,-3.672 0.015,-18.391 0.031,-33.489 0.008,-7.171 0.016,-13.925 0.016,-33.504 v -0.531 l 0.254,-0.492 0.961,-1.855 0.265,-0.516 0.492,-0.324 30.391,-19.989 0.434,-0.285 0.511,-0.066 1.813,-0.227 0.531,-0.07 0.473,0.164 25.918,8.926 v -23.184 c 0,-0.738 0.175,-1.445 0.5,-2.09 0.324,-0.648 0.797,-1.211 1.386,-1.648 l 0.067,-0.055 24.64,-17.09 0.164,-0.109 0.18,-0.109 0.113,-0.059 0.274,-0.141 0.09,-0.046 0.129,-0.051 0.328,-0.125 0.09,-0.035 0.129,-0.035 c 0.425,-0.118 0.859,-0.168 1.289,-0.157 0.421,0.008 0.832,0.074 1.234,0.192 h 0.008 l 31.164,9.187 V 81.066 l 0.058,-0.269 c 0.141,-0.617 0.372,-1.219 0.711,-1.766 0.34,-0.551 0.786,-1.039 1.352,-1.422 l 0.09,-0.058 33.668,-20.332 v 0.008 l 0.597,-0.368 c 0.598,-0.371 1.215,-0.507 1.797,-0.5 0.672,0.012 1.27,0.215 1.711,0.457 l -0.004,0.004 46.664,25.489 1.172,0.64 v 156.75 z" /><path
         id="path54"
         style="fill:#ed1c24;fill-opacity:1;fill-rule:evenodd;stroke:none"
         d="m 232.25,85.684 8.434,-5.332 v 6.679 l -8.434,5.321 z" /><path
         id="path56"
         style="fill:#ed1c24;fill-opacity:1;fill-rule:evenodd;stroke:none"
         d="m 245.602,78.059 8.464,-5.461 v 6.656 l -8.464,5.34 z" /><path
         id="path58"
         style="fill:#ed1c24;fill-opacity:1;fill-rule:evenodd;stroke:none"
         d="m 232.25,103.246 8.434,-5.324 v 6.676 l -8.434,5.32 z" /><path
         id="path60"
         style="fill:#ed1c24;fill-opacity:1;fill-rule:evenodd;stroke:none"
         d="m 245.602,95.625 8.464,-5.465 v 6.66 l -8.464,5.34 z" /><path
         id="path62"
         style="fill:#ed1c24;fill-opacity:1;fill-rule:evenodd;stroke:none"
         d="m 232.25,120.816 8.434,-5.332 v 6.676 l -8.434,5.324 z" /><path
         id="path64"
         style="fill:#ed1c24;fill-opacity:1;fill-rule:evenodd;stroke:none"
         d="m 245.602,113.191 8.464,-5.464 v 6.656 l -8.464,5.34 z" /><path
         id="path66"
         style="fill:#ed1c24;fill-opacity:1;fill-rule:evenodd;stroke:none"
         d="m 232.25,138.375 8.434,-5.324 v 6.676 l -8.434,5.32 z" /><path
         id="path68"
         style="fill:#ed1c24;fill-opacity:1;fill-rule:evenodd;stroke:none"
         d="m 245.602,130.758 8.464,-5.465 v 6.656 l -8.464,5.34 z" /><path
         id="path70"
         style="fill:#ed1c24;fill-opacity:1;fill-rule:evenodd;stroke:none"
         d="m 232.25,155.945 8.434,-5.332 v 6.676 l -8.434,5.32 z" /><path
         id="path72"
         style="fill:#ed1c24;fill-opacity:1;fill-rule:evenodd;stroke:none"
         d="m 245.602,148.32 8.464,-5.465 v 6.657 l -8.464,5.34 z" /><path
         id="path74"
         style="fill:#ed1c24;fill-opacity:1;fill-rule:evenodd;stroke:none"
         d="m 232.25,173.512 8.434,-5.336 v 6.683 l -8.434,5.313 z" /><path
         id="path76"
         style="fill:#ed1c24;fill-opacity:1;fill-rule:evenodd;stroke:none"
         d="m 245.602,165.887 8.464,-5.469 v 6.652 l -8.464,5.344 z" /><path
         id="path78"
         style="fill:#ed1c24;fill-opacity:1;fill-rule:evenodd;stroke:none"
         d="m 232.25,191.074 8.434,-5.336 v 6.684 l -8.434,5.32 z" /><path
         id="path80"
         style="fill:#ed1c24;fill-opacity:1;fill-rule:evenodd;stroke:none"
         d="m 245.602,183.449 8.464,-5.461 v 6.653 l -8.464,5.343 z" /><path
         id="path82"
         style="fill:#ed1c24;fill-opacity:1;fill-rule:evenodd;stroke:none"
         d="m 232.25,208.637 8.434,-5.328 v 6.679 l -8.434,5.313 z" /><path
         id="path84"
         style="fill:#ed1c24;fill-opacity:1;fill-rule:evenodd;stroke:none"
         d="m 245.602,201.016 8.464,-5.465 v 6.656 l -8.464,5.34 z" /><path
         id="path86"
         style="fill:#ed1c24;fill-opacity:1;fill-rule:evenodd;stroke:none"
         d="m 232.25,226.199 8.434,-5.332 v 6.684 l -8.434,5.32 z" /><path
         id="path88"
         style="fill:#ed1c24;fill-opacity:1;fill-rule:evenodd;stroke:none"
         d="m 245.602,218.574 8.464,-5.461 v 6.657 l -8.464,5.343 z" /><path
         id="path90"
         style="fill:#ed1c24;fill-opacity:1;fill-rule:evenodd;stroke:none"
         d="m 294.691,87.902 -9.168,-5.226 v 6.543 l 9.168,5.219 z" /><path
         id="path92"
         style="fill:#ed1c24;fill-opacity:1;fill-rule:evenodd;stroke:none"
         d="m 280.172,80.43 -9.203,-5.356 v 6.524 l 9.203,5.234 z" /><path
         id="path94"
         style="fill:#ed1c24;fill-opacity:1;fill-rule:evenodd;stroke:none"
         d="m 294.691,105.109 -9.168,-5.214 v 6.539 l 9.168,5.214 z" /><path
         id="path96"
         style="fill:#ed1c24;fill-opacity:1;fill-rule:evenodd;stroke:none"
         d="m 280.172,97.645 -9.203,-5.356 v 6.524 l 9.203,5.23 z" /><path
         id="path98"
         style="fill:#ed1c24;fill-opacity:1;fill-rule:evenodd;stroke:none"
         d="m 294.691,122.328 -9.168,-5.223 v 6.543 l 9.168,5.215 z" /><path
         id="path100"
         style="fill:#ed1c24;fill-opacity:1;fill-rule:evenodd;stroke:none"
         d="m 280.172,114.855 -9.203,-5.355 v 6.523 l 9.203,5.235 z" /><path
         id="path102"
         style="fill:#ed1c24;fill-opacity:1;fill-rule:evenodd;stroke:none"
         d="m 294.691,139.535 -9.168,-5.219 v 6.543 l 9.168,5.215 z" /><path
         id="path104"
         style="fill:#ed1c24;fill-opacity:1;fill-rule:evenodd;stroke:none"
         d="m 280.172,132.07 -9.203,-5.355 v 6.523 l 9.203,5.231 z" /><path
         id="path106"
         style="fill:#ed1c24;fill-opacity:1;fill-rule:evenodd;stroke:none"
         d="m 294.691,156.754 -9.168,-5.223 v 6.543 l 9.168,5.207 z" /><path
         id="path108"
         style="fill:#ed1c24;fill-opacity:1;fill-rule:evenodd;stroke:none"
         d="m 280.172,149.277 -9.203,-5.347 v 6.519 l 9.203,5.235 z" /><path
         id="path110"
         style="fill:#ed1c24;fill-opacity:1;fill-rule:evenodd;stroke:none"
         d="m 294.691,173.965 -9.168,-5.223 v 6.543 l 9.168,5.215 z" /><path
         id="path112"
         style="fill:#ed1c24;fill-opacity:1;fill-rule:evenodd;stroke:none"
         d="m 280.172,166.492 -9.203,-5.351 v 6.519 l 9.203,5.231 z" /><path
         id="path114"
         style="fill:#ed1c24;fill-opacity:1;fill-rule:evenodd;stroke:none"
         d="m 294.691,191.18 -9.168,-5.223 v 6.543 l 9.168,5.215 z" /><path
         id="path116"
         style="fill:#ed1c24;fill-opacity:1;fill-rule:evenodd;stroke:none"
         d="m 280.172,183.707 -9.203,-5.355 v 6.523 l 9.203,5.23 z" /><path
         id="path118"
         style="fill:#ed1c24;fill-opacity:1;fill-rule:evenodd;stroke:none"
         d="m 294.691,208.391 -9.168,-5.223 v 6.543 l 9.168,5.207 z" /><path
         id="path120"
         style="fill:#ed1c24;fill-opacity:1;fill-rule:evenodd;stroke:none"
         d="m 280.172,200.922 -9.203,-5.356 v 6.52 l 9.203,5.23 z" /><path
         id="path122"
         style="fill:#ed1c24;fill-opacity:1;fill-rule:evenodd;stroke:none"
         d="m 294.691,225.602 -9.168,-5.227 v 6.547 l 9.168,5.215 z" /><path
         id="path124"
         style="fill:#ed1c24;fill-opacity:1;fill-rule:evenodd;stroke:none"
         d="m 280.172,218.125 -9.203,-5.352 v 6.524 l 9.203,5.238 z" /><path
         id="path126"
         style="fill:#ed1c24;fill-opacity:1;fill-rule:evenodd;stroke:none"
         d="m 106.867,179.156 19.434,-12.519 v 4.687 l -19.434,12.508 z" /><path
         id="path128"
         style="fill:#ed1c24;fill-opacity:1;fill-rule:evenodd;stroke:none"
         d="m 106.867,195.676 19.434,-12.512 v 4.66 l -19.434,12.528 z" /><path
         id="path130"
         style="fill:#ed1c24;fill-opacity:1;fill-rule:evenodd;stroke:none"
         d="m 106.867,211.625 19.434,-12.516 v 4.704 l -19.434,12.507 z" /><path
         id="path132"
         style="fill:#ed1c24;fill-opacity:1;fill-rule:evenodd;stroke:none"
         d="m 106.773,227.188 19.805,-11.833 -0.152,4.676 -19.817,11.832 z" /><path
         id="path134"
         style="fill:#ed1c24;fill-opacity:1;fill-rule:evenodd;stroke:none"
         d="m 138.262,169.121 0.062,-4.039 19.821,6.66 -0.032,4.121 z" /><path
         id="path136"
         style="fill:#ed1c24;fill-opacity:1;fill-rule:evenodd;stroke:none"
         d="m 138.262,181.551 0.062,-4.035 19.781,6.656 -0.015,4.094 z" /><path
         id="path138"
         style="fill:#ed1c24;fill-opacity:1;fill-rule:evenodd;stroke:none"
         d="m 138.262,193.973 0.062,-4.047 19.731,6.648 -0.016,4.129 z" /><path
         id="path140"
         style="fill:#ed1c24;fill-opacity:1;fill-rule:evenodd;stroke:none"
         d="m 138.262,207.059 0.062,-4.043 19.692,6.629 -0.012,4.128 z" /><path
         id="path142"
         style="fill:#ed1c24;fill-opacity:1;fill-rule:evenodd;stroke:none"
         d="m 138.262,220.137 0.062,-4.043 19.66,6.625 -0.007,4.125 z" /><path
         id="path144"
         style="fill:#ed1c24;fill-opacity:1;fill-rule:evenodd;stroke:none"
         d="m 204.797,134.789 -6.399,-1.719 v -5.199 l 6.399,1.731 z" /><path
         id="path146"
         style="fill:#ed1c24;fill-opacity:1;fill-rule:evenodd;stroke:none"
         d="m 214.184,137.098 -6.395,-1.727 v -5.187 l 6.395,1.726 z" /><path
         id="path148"
         style="fill:#ed1c24;fill-opacity:1;fill-rule:evenodd;stroke:none"
         d="m 204.797,149.789 -6.399,-1.73 v -5.184 l 6.399,1.727 z" /><path
         id="path150"
         style="fill:#ed1c24;fill-opacity:1;fill-rule:evenodd;stroke:none"
         d="m 214.184,152.105 -6.395,-1.73 v -5.199 l 6.395,1.726 z" /><path
         id="path152"
         style="fill:#ed1c24;fill-opacity:1;fill-rule:evenodd;stroke:none"
         d="m 204.797,164.805 -6.399,-1.742 v -5.192 l 6.399,1.734 z" /><path
         id="path154"
         style="fill:#ed1c24;fill-opacity:1;fill-rule:evenodd;stroke:none"
         d="m 214.184,167.113 -6.395,-1.738 v -5.195 l 6.395,1.742 z" /><path
         id="path156"
         style="fill:#ed1c24;fill-opacity:1;fill-rule:evenodd;stroke:none"
         d="m 204.797,179.809 -6.399,-1.731 v -5.191 l 6.399,1.715 z" /><path
         id="path158"
         style="fill:#ed1c24;fill-opacity:1;fill-rule:evenodd;stroke:none"
         d="m 214.184,182.113 -6.395,-1.726 v -5.203 l 6.395,1.746 z" /><path
         id="path160"
         style="fill:#ed1c24;fill-opacity:1;fill-rule:evenodd;stroke:none"
         d="m 204.797,194.816 -6.399,-1.73 v -5.207 l 6.399,1.726 z" /><path
         id="path162"
         style="fill:#ed1c24;fill-opacity:1;fill-rule:evenodd;stroke:none"
         d="m 214.184,197.109 -6.395,-1.722 v -5.199 l 6.395,1.73 z" /><path
         id="path164"
         style="fill:#ed1c24;fill-opacity:1;fill-rule:evenodd;stroke:none"
         d="m 204.797,209.824 -6.399,-1.738 v -5.195 l 6.399,1.734 z" /><path
         id="path166"
         style="fill:#ed1c24;fill-opacity:1;fill-rule:evenodd;stroke:none"
         d="m 214.184,212.133 -6.395,-1.742 v -5.184 l 6.395,1.731 z" /><path
         id="path168"
         style="fill:#ed1c24;fill-opacity:1;fill-rule:evenodd;stroke:none"
         d="m 204.797,225.16 -6.399,-1.73 v -5.203 l 6.399,1.722 z" /><path
         id="path170"
         style="fill:#ed1c24;fill-opacity:1;fill-rule:evenodd;stroke:none"
         d="m 214.184,227.461 -6.395,-1.731 v -5.195 l 6.395,1.731 z" /><path
         id="path172"
         style="fill:#ed1c24;fill-opacity:1;fill-rule:evenodd;stroke:none"
         d="m 178.43,137.57 6.254,-3.754 v -5.203 l -6.254,3.742 z" /><path
         id="path174"
         style="fill:#ed1c24;fill-opacity:1;fill-rule:evenodd;stroke:none"
         d="m 169.242,142.836 6.262,-3.758 v -5.187 l -6.262,3.754 z" /><path
         id="path176"
         style="fill:#ed1c24;fill-opacity:1;fill-rule:evenodd;stroke:none"
         d="m 178.43,152.555 6.254,-3.746 v -5.188 l -6.254,3.75 z" /><path
         id="path178"
         style="fill:#ed1c24;fill-opacity:1;fill-rule:evenodd;stroke:none"
         d="m 169.242,157.84 6.262,-3.758 v -5.191 l -6.262,3.742 z" /><path
         id="path180"
         style="fill:#ed1c24;fill-opacity:1;fill-rule:evenodd;stroke:none"
         d="m 178.43,167.574 6.254,-3.765 v -5.204 l -6.254,3.77 z" /><path
         id="path182"
         style="fill:#ed1c24;fill-opacity:1;fill-rule:evenodd;stroke:none"
         d="m 169.242,172.844 6.262,-3.75 v -5.203 l -6.262,3.757 z" /><path
         id="path184"
         style="fill:#ed1c24;fill-opacity:1;fill-rule:evenodd;stroke:none"
         d="m 178.43,182.563 6.254,-3.754 v -5.176 l -6.254,3.75 z" /><path
         id="path186"
         style="fill:#ed1c24;fill-opacity:1;fill-rule:evenodd;stroke:none"
         d="m 169.242,187.852 6.262,-3.766 v -5.188 l -6.262,3.762 z" /><path
         id="path188"
         style="fill:#ed1c24;fill-opacity:1;fill-rule:evenodd;stroke:none"
         d="m 178.43,197.574 6.254,-3.754 v -5.187 l -6.254,3.742 z" /><path
         id="path190"
         style="fill:#ed1c24;fill-opacity:1;fill-rule:evenodd;stroke:none"
         d="m 169.242,202.848 6.262,-3.75 v -5.188 l -6.262,3.746 z" /><path
         id="path192"
         style="fill:#ed1c24;fill-opacity:1;fill-rule:evenodd;stroke:none"
         d="m 178.43,212.59 6.254,-3.758 v -5.199 l -6.254,3.762 z" /><path
         id="path194"
         style="fill:#ed1c24;fill-opacity:1;fill-rule:evenodd;stroke:none"
         d="m 169.242,217.867 6.262,-3.758 v -5.179 l -6.262,3.734 z" /><path
         id="path196"
         style="fill:#ed1c24;fill-opacity:1;fill-rule:evenodd;stroke:none"
         d="m 178.43,227.594 6.254,-3.758 v -5.199 l -6.254,3.758 z" /><path
         id="path198"
         style="fill:#ed1c24;fill-opacity:1;fill-rule:evenodd;stroke:none"
         d="m 169.242,232.871 6.262,-3.758 v -5.187 l -6.262,3.738 z" /><path
         id="path200"
         style="fill:#ed1c24;fill-opacity:1;fill-rule:evenodd;stroke:none"
         d="m 159.848,160.602 h 4.477 v 79.426 h -4.477 z" /><path
         id="path202"
         style="fill:#ed1c24;fill-opacity:1;fill-rule:evenodd;stroke:none"
         d="m 221.598,124.918 h 4.449 v 114.477 h -4.449 z" /><path
         id="path204"
         style="fill:#ed1c24;fill-opacity:1;fill-rule:evenodd;stroke:none"
         d="m 257.48,58.594 h 4.477 v 181.434 h -4.477 z" /><path
         id="path206"
         style="fill:#ed1c24;fill-opacity:1;fill-rule:evenodd;stroke:none"
         d="m 187.035,115.098 h 4.43 v 126.215 h -4.43 z" /><path
         id="path208"
         style="fill:#ed1c24;fill-opacity:1;fill-rule:evenodd;stroke:none"
         d="m 130.973,152.508 h 4.461 v 88.805 h -4.461 z" /><path
         id="path210"
         style="fill:#ed1c24;fill-opacity:1;fill-rule:evenodd;stroke:none"
         d="m 359.656,222.32 c -1.699,-0.898 -3.457,-1.379 -5.406,-1.379 -3.008,0 -5.41,0.899 -7.305,2.645 -1.824,1.805 -2.734,4.023 -2.734,6.789 0,2.766 0.91,5.047 2.867,6.789 1.895,1.75 4.231,2.59 6.969,2.59 0.98,0 2.027,-0.059 3.129,-0.301 1.047,-0.242 1.957,-0.48 2.547,-0.848 l 0.257,3.372 c -0.914,0.355 -1.89,0.539 -2.871,0.664 -0.976,0.117 -2.015,0.172 -3.129,0.172 -4.164,0 -7.492,-1.137 -9.96,-3.36 -2.547,-2.289 -3.786,-5.351 -3.786,-9.199 0,-3.727 1.305,-6.668 3.907,-8.953 2.55,-2.285 5.867,-3.363 9.906,-3.363 1.18,0 2.152,0.058 3.062,0.179 0.914,0.176 1.829,0.481 2.805,0.84 z m 4.555,-3.965 h 6.391 c 3.191,0 5.664,0.422 7.492,1.262 1.758,0.844 2.672,2.59 2.672,5.231 0,1.437 -0.524,2.64 -1.496,3.605 -1.047,1.02 -2.282,1.621 -3.915,1.86 0.59,0.242 1.043,0.542 1.434,0.902 0.332,0.363 0.723,0.906 1.113,1.625 l 4.953,9.551 h -4.242 l -4.039,-8.352 c -0.523,-1.023 -1.105,-1.68 -1.691,-1.918 -0.59,-0.305 -1.504,-0.426 -2.672,-0.426 h -2.281 v 10.696 h -3.719 z m 3.719,10.34 h 3.191 c 1.762,0 3.129,-0.363 4.176,-1.023 0.969,-0.664 1.492,-1.563 1.492,-2.766 0,-1.082 -0.457,-1.98 -1.367,-2.586 -0.848,-0.66 -2.215,-0.961 -3.844,-0.961 h -3.648 z m 19.547,-10.34 h 14.601 v 3.004 h -10.887 v 7.036 h 9.973 v 3.062 h -9.973 v 7.93 h 10.887 v 3.004 h -14.601 z m 28.871,0 h 3.906 l 11.078,24.036 h -4.043 l -2.672,-6.063 h -12.832 l -2.672,6.063 h -3.918 z m 1.816,3.188 -5.211,11.957 h 10.43 z m 22.094,-0.184 h -8.082 v -3.004 h 19.937 v 3.004 h -8.082 v 21.032 h -3.773 z m 15.64,-3.004 h 3.715 v 24.036 h -3.715 z m 10.36,0 h 5.078 l 11.535,19.356 0.063,-19.356 h 3.718 v 24.036 h -4.754 l -11.863,-19.766 -0.066,19.766 h -3.711 z m 46.851,4.27 c -0.914,-0.602 -1.957,-1.027 -3.062,-1.266 -1.109,-0.242 -2.481,-0.418 -4.106,-0.418 -3,0 -5.406,0.899 -7.234,2.704 -1.891,1.746 -2.805,4.027 -2.805,6.73 0,2.766 0.981,5.047 2.871,6.789 1.891,1.75 4.168,2.59 6.969,2.59 1.113,0 1.957,0 2.672,-0.125 0.719,-0.117 1.234,-0.242 1.5,-0.242 v -7.328 h -5.473 v -2.825 h 9.192 v 12.5 c -0.856,0.301 -1.957,0.539 -3.262,0.782 -1.301,0.183 -2.871,0.297 -4.695,0.297 -4.164,0 -7.492,-1.137 -9.965,-3.36 -2.547,-2.289 -3.781,-5.351 -3.781,-9.199 0,-3.727 1.3,-6.668 3.847,-8.953 2.606,-2.285 5.926,-3.363 9.965,-3.363 1.692,0 3.063,0.058 4.039,0.238 1.047,0.179 2.282,0.484 3.586,0.965 z m 25.801,-4.27 h 3.977 l 11.008,24.036 h -4.04 l -2.671,-6.063 h -12.77 l -2.738,6.063 h -3.906 z m 1.895,3.188 -5.219,11.957 h 10.363 z m 28.73,0.055 c -1.039,-0.239 -1.89,-0.422 -2.539,-0.481 -0.656,-0.117 -1.433,-0.176 -2.348,-0.176 -1.238,0 -2.339,0.235 -3.253,0.719 -0.911,0.547 -1.309,1.324 -1.309,2.528 0,1.203 1.309,2.523 4.039,3.847 2.672,1.317 4.563,2.34 5.609,3.063 1.036,0.781 1.559,2.281 1.559,4.562 0,2.406 -0.914,4.215 -2.672,5.41 -1.691,1.149 -4.039,1.743 -6.902,1.743 -0.781,0 -1.633,-0.055 -2.414,-0.239 -0.848,-0.183 -1.825,-0.418 -2.93,-0.781 l 0.391,-3.188 c 0.781,0.309 1.625,0.54 2.672,0.848 0.98,0.176 1.957,0.301 2.738,0.301 1.301,0 2.472,-0.301 3.515,-0.965 1.106,-0.664 1.629,-1.625 1.629,-2.945 0,-1.442 -0.914,-2.645 -2.797,-3.547 -1.89,-0.957 -3.714,-1.859 -5.476,-2.703 -1.957,-1.262 -2.938,-3.004 -2.938,-5.11 0,-2.101 0.789,-3.664 2.348,-4.867 1.57,-1.14 3.586,-1.679 6,-1.679 0.914,0 1.824,0.058 2.797,0.179 0.98,0.176 1.891,0.36 2.805,0.66 z m 18.699,0 c -1.035,-0.239 -1.882,-0.422 -2.539,-0.481 -0.656,-0.117 -1.433,-0.176 -2.347,-0.176 -1.235,0 -2.34,0.235 -3.254,0.719 -0.852,0.547 -1.301,1.324 -1.301,2.528 0,1.203 1.301,2.523 4.039,3.847 2.672,1.317 4.559,2.34 5.602,3.063 1.046,0.781 1.558,2.281 1.558,4.562 0,2.406 -0.91,4.215 -2.668,5.41 -1.761,1.149 -4.043,1.743 -6.84,1.743 -0.843,0 -1.632,-0.055 -2.48,-0.239 -0.844,-0.183 -1.824,-0.418 -2.926,-0.781 l 0.391,-3.188 c 0.777,0.309 1.625,0.54 2.668,0.848 0.98,0.176 1.89,0.301 2.738,0.301 1.305,0 2.473,-0.301 3.52,-0.965 1.109,-0.664 1.625,-1.625 1.625,-2.945 0,-1.442 -0.915,-2.645 -2.797,-3.547 -1.891,-0.957 -3.715,-1.859 -5.473,-2.703 -1.961,-1.262 -2.93,-3.004 -2.93,-5.11 0,-2.101 0.778,-3.664 2.34,-4.867 1.567,-1.14 3.582,-1.679 6.063,-1.679 0.847,0 1.761,0.058 2.73,0.179 0.981,0.176 1.891,0.36 2.805,0.66 z m 7.043,-3.243 h 14.594 v 3.004 h -10.883 v 7.036 h 9.907 v 3.062 h -9.907 v 7.93 h 10.883 v 3.004 h -14.594 z m 25.805,3.004 h -8.148 v -3.004 h 20.004 v 3.004 h -8.149 v 21.032 h -3.707 z m 27.426,0.239 c -0.969,-0.239 -1.824,-0.422 -2.539,-0.481 -0.653,-0.117 -1.434,-0.176 -2.344,-0.176 -1.238,0 -2.285,0.235 -3.195,0.719 -0.907,0.547 -1.364,1.324 -1.364,2.528 0,1.203 1.364,2.523 4.036,3.847 2.671,1.317 4.562,2.34 5.605,3.063 1.047,0.781 1.563,2.281 1.563,4.562 0,2.406 -0.848,4.215 -2.606,5.41 -1.762,1.149 -4.105,1.743 -6.902,1.743 -0.789,0 -1.637,-0.055 -2.481,-0.239 -0.847,-0.183 -1.828,-0.418 -2.863,-0.781 l 0.324,-3.188 c 0.778,0.309 1.625,0.54 2.668,0.848 1.047,0.176 1.895,0.301 2.805,0.301 1.238,0 2.41,-0.301 3.519,-0.965 1.039,-0.664 1.559,-1.625 1.559,-2.945 0,-1.442 -0.91,-2.645 -2.793,-3.547 -1.828,-0.957 -3.719,-1.859 -5.477,-2.703 -1.957,-1.262 -2.937,-3.004 -2.937,-5.11 0,-2.101 0.789,-3.664 2.348,-4.867 1.57,-1.14 3.586,-1.679 6.066,-1.679 0.836,0 1.758,0.058 2.727,0.179 0.98,0.176 1.894,0.36 2.804,0.66 z m 29.129,0 c -1.043,-0.239 -1.891,-0.422 -2.535,-0.481 -0.657,-0.117 -1.438,-0.176 -2.348,-0.176 -1.305,0 -2.352,0.235 -3.262,0.719 -0.847,0.547 -1.371,1.324 -1.371,2.528 0,1.203 1.371,2.523 4.109,3.847 2.672,1.317 4.563,2.34 5.61,3.063 1.035,0.781 1.558,2.281 1.558,4.562 0,2.406 -0.914,4.215 -2.671,5.41 -1.758,1.149 -4.039,1.743 -6.903,1.743 -0.789,0 -1.57,-0.055 -2.48,-0.239 -0.781,-0.183 -1.758,-0.418 -2.871,-0.781 l 0.398,-3.188 c 0.715,0.309 1.625,0.54 2.606,0.848 1.043,0.176 1.949,0.301 2.804,0.301 1.301,0 2.473,-0.301 3.516,-0.965 1.105,-0.664 1.629,-1.625 1.629,-2.945 0,-1.442 -0.981,-2.645 -2.805,-3.547 -1.883,-0.957 -3.711,-1.859 -5.469,-2.703 -2.023,-1.262 -2.937,-3.004 -2.937,-5.11 0,-2.101 0.781,-3.664 2.348,-4.867 1.558,-1.14 3.582,-1.679 5.992,-1.679 0.91,0 1.824,0.058 2.804,0.179 0.911,0.176 1.891,0.36 2.805,0.66 z m 6.781,-3.243 h 3.773 v 24.036 h -3.773 z m 10.422,0 h 5.082 l 11.535,19.356 0.066,-19.356 h 3.715 v 24.036 h -4.82 l -11.797,-19.766 -0.066,19.766 h -3.715 z m 45.031,3.965 c -1.633,-0.898 -3.391,-1.379 -5.351,-1.379 -2.997,0 -5.399,0.899 -7.293,2.645 -1.825,1.805 -2.739,4.023 -2.739,6.789 0,2.766 0.914,5.047 2.871,6.789 1.817,1.75 4.164,2.59 6.969,2.59 0.981,0 2.016,-0.059 3.063,-0.301 1.113,-0.242 1.957,-0.48 2.605,-0.848 l 0.199,3.372 c -0.847,0.355 -1.824,0.539 -2.804,0.664 -0.981,0.117 -2.016,0.172 -3.129,0.172 -4.172,0 -7.492,-1.137 -9.961,-3.36 -2.547,-2.289 -3.785,-5.351 -3.785,-9.199 0,-3.727 1.304,-6.668 3.906,-8.953 2.547,-2.285 5.867,-3.363 9.906,-3.363 1.113,0 2.152,0.058 3.063,0.179 0.914,0.176 1.824,0.481 2.804,0.84 z m 5.012,-3.965 h 14.668 v 3.004 h -10.953 v 7.036 h 9.972 v 3.062 h -9.972 v 7.93 h 10.953 v 3.004 h -14.668 z m 37.734,3.965 -3.976,3.129 -1.957,-2.285 6.386,-4.809 h 3.321 v 24.036 h -3.774 z m 14.137,16.653 c 1.367,0.656 2.926,1.019 4.629,1.019 2.34,0 4.097,-0.902 5.41,-2.644 1.301,-1.688 1.949,-3.848 1.949,-6.43 -0.914,0.898 -1.883,1.562 -2.797,1.98 -0.914,0.368 -1.957,0.54 -3.07,0.54 -2.406,0 -4.363,-0.661 -5.73,-2.098 -1.438,-1.387 -2.086,-3.25 -2.086,-5.469 0,-2.406 0.781,-4.328 2.347,-5.773 1.629,-1.438 3.586,-2.16 5.992,-2.16 3.329,0 5.61,1.078 6.911,3.304 1.238,2.16 1.89,4.93 1.89,8.231 0,3.793 -0.785,6.968 -2.414,9.5 -1.633,2.582 -4.363,3.84 -8.144,3.84 -0.914,0 -1.895,-0.055 -2.996,-0.239 -1.172,-0.183 -1.957,-0.355 -2.415,-0.539 z m 6.644,-8.356 c 1.5,0 2.672,-0.422 3.516,-1.324 0.914,-0.898 1.305,-2.043 1.305,-3.488 0,-1.262 -0.391,-2.465 -1.168,-3.485 -0.848,-1.019 -1.961,-1.558 -3.395,-1.558 -1.496,0 -2.605,0.48 -3.453,1.445 -0.781,1.02 -1.168,2.223 -1.168,3.598 0,1.261 0.387,2.406 1.102,3.371 0.789,0.961 1.828,1.441 3.261,1.441 z m 23.653,-9.441 -8.203,12.926 h 8.203 z m 0,15.746 h -12.18 v -2.82 l 10.555,-15.747 h 5.344 v 15.747 h 3.257 v 2.82 h -3.257 v 5.469 h -3.719 z m 9.773,1.808 4.696,-3.906 c 1.371,-1.203 2.605,-2.344 3.652,-3.308 1.035,-1.02 1.883,-2.102 2.672,-3.305 0.777,-1.203 1.168,-2.465 1.168,-3.668 0,-1.078 -0.457,-2.039 -1.367,-2.762 -0.981,-0.664 -2.149,-1.019 -3.653,-1.019 -1.101,0 -2.148,0.117 -3.191,0.414 -0.981,0.308 -1.895,0.664 -2.797,1.144 l -0.332,-3 c 1.113,-0.484 2.281,-0.785 3.394,-1.027 1.102,-0.242 2.215,-0.355 3.383,-0.355 2.539,0 4.563,0.597 6.121,1.804 1.637,1.137 2.418,2.883 2.418,5.043 0,1.203 -0.39,2.465 -1.172,3.789 -0.785,1.324 -1.691,2.524 -2.671,3.547 -1.043,1.02 -2.215,2.223 -3.715,3.602 l -4.629,3.847 h 12.574 v 2.821 h -16.551 z" /><path
         id="path212"
         style="fill:#ed1c24;fill-opacity:1;fill-rule:evenodd;stroke:none"
         d="m 434.441,139.289 28.45,-67.547 h -11.34 V 43.371 h 61.758 V 71.742 H 502.617 L 450.238,195.938 H 410.074 L 352.238,71.742 H 340.234 V 43.371 h 80.536 v 28.371 h -12.004 c 8.554,22.531 17.121,44.988 25.675,67.547 z" /><path
         id="path214"
         style="fill:#ed1c24;fill-opacity:1;fill-rule:evenodd;stroke:none"
         d="m 666.586,146.539 c -0.68,11.313 -6.41,21.789 -11.598,28.609 -2.445,3.219 -8.113,10.543 -18.633,15.665 -5.558,2.703 -8.187,3.671 -14.57,5.332 -6.371,1.671 -14.789,2.335 -21.894,2.335 -11.59,0 -22.094,-1.769 -31.512,-5.32 -9.414,-3.562 -17.453,-8.695 -24.117,-15.433 -6.668,-6.739 -11.852,-14.926 -15.543,-24.563 -3.692,-9.637 -5.543,-20.539 -5.543,-32.711 0,-12.461 2.101,-23.652 6.301,-33.582 4.203,-9.922 9.285,-18.324 15.808,-25.203 6.52,-6.883 13.371,-12.145 21.125,-15.762 7.746,-3.629 11.555,-4.449 20.879,-5.152 5.191,-0.391 11.715,0.371 15.695,1.676 3.985,1.3 7.071,2.785 9.825,4.457 2.746,1.656 5.425,3.359 7.582,5.258 2.109,1.847 2.464,2.269 3.347,2.96 l 3.981,-11.777 h 34.117 v 46.508 h -41.965 c -0.73,-1.816 -0.988,-2.555 -2.59,-4.977 -2.207,-3.339 -2.715,-3.82 -5.195,-6.05 -3.434,-3.098 -8.305,-4.395 -12.195,-4.778 -9.133,-0.894 -14.309,2.145 -17.496,4.391 -3.188,2.242 -7.29,6.723 -9.536,10.633 -2.246,3.918 -4.218,9.453 -5.449,14.664 -1.226,5.219 -1.847,10.793 -1.847,16.734 0,5.363 0.687,10.508 2.066,15.434 1.375,4.922 3.402,9.277 6.082,13.039 2.676,3.765 7.672,8.472 11.578,10.711 3.918,2.254 10.77,4.715 15.988,4.715 10.024,0 14.77,-1.344 18.766,-3.489 4.051,-2.172 7.094,-4.82 9.758,-8.593 2.605,-3.715 4.554,-10.325 4.554,-14.016 H 596.93 V 108.68 h 69.656 z" /><path
         id="path216"
         style="fill:#ed1c24;fill-opacity:1;fill-rule:evenodd;stroke:none"
         d="m 853.375,71.527 h -14.402 v 124.411 h -46.926 l -55.652,-83.157 v 55 h 16.8 v 28.157 h -67.004 v -28.157 h 12.887 V 71.527 h -12.66 V 43.371 h 62.637 l 53.687,80.106 V 71.527 H 787.684 V 43.371 h 65.691 z" /></g></g></svg>